<svg width="18" height="17" viewBox="0 0 18 17" fill="none" xmlns="http://www.w3.org/2000/svg">
<path d="M1 3.011C1 1.90643 1.89543 1 3 1H15C16.1046 1 17 1.90643 17 3.011V3.011C17 3.77088 16.7116 4.50895 16.1932 5.06447L11.9379 9.62369C11.5922 9.99403 11.4 10.4817 11.4 10.9883V13.982C11.4 14.3607 11.186 14.707 10.8472 14.8764L8.04721 16.2764C7.38231 16.6088 6.6 16.1253 6.6 15.382V10.9883C6.6 10.4817 6.40776 9.99403 6.06211 9.62369L1.80683 5.06446C1.28836 4.50895 1 3.77088 1 3.011V3.011Z" stroke="#2B3F6C"/>
</svg>
