<svg width="20" height="20" viewBox="0 0 20 20" fill="none" xmlns="http://www.w3.org/2000/svg">
<path d="M9.39844 0.806489C7.39063 1.08774 5.83594 2.55649 5.40625 4.5643C5.3125 4.98618 5.3125 5.93149 5.40625 6.36118C5.61719 7.33774 6.05469 8.13461 6.75781 8.82211C7.53125 9.57211 8.39844 9.97836 9.50781 10.1268L9.67969 10.1502L9.6875 14.6034L9.69531 19.0565L9.79688 19.1424C9.92969 19.2518 10.0781 19.2518 10.2109 19.1424L10.3125 19.0565L10.3203 14.6034L10.3281 10.1502L10.5 10.1268C11.6641 9.97055 12.5938 9.51743 13.3672 8.70493C14.0156 8.02524 14.4062 7.29086 14.6094 6.36118C14.7031 5.9393 14.6953 4.98618 14.6094 4.5643C14.4062 3.61118 13.9922 2.84555 13.3047 2.15805C12.6484 1.5018 11.9063 1.08774 10.9766 0.876801C10.6172 0.790863 9.75 0.751801 9.39844 0.806489ZM8.96094 3.07993C9.21094 3.19711 9.42969 3.40805 9.5625 3.65805C9.65625 3.82993 9.66406 3.89243 9.66406 4.1893C9.66406 4.48618 9.64844 4.5643 9.57031 4.73618C9.45313 4.98618 9.22656 5.21274 8.96875 5.33774C8.70313 5.46274 8.21094 5.47055 7.95313 5.35336C7.16406 5.0018 6.95312 4.0018 7.51562 3.38461C7.79688 3.07993 8.07031 2.96274 8.48438 2.97836C8.6875 2.98618 8.80469 3.00961 8.96094 3.07993Z" fill="black"/>
</svg>
